<mxfile host="Electron" agent="Mozilla/5.0 (Windows NT 10.0; Win64; x64) AppleWebKit/537.36 (KHTML, like Gecko) draw.io/24.7.5 Chrome/126.0.6478.183 Electron/31.3.0 Safari/537.36" version="24.7.5">
  <diagram name="Page-1" id="0zaoE_H4niK1X_6jP76W">
    <mxGraphModel dx="1858" dy="1613" grid="1" gridSize="10" guides="1" tooltips="1" connect="1" arrows="1" fold="1" page="1" pageScale="1" pageWidth="827" pageHeight="1169" math="0" shadow="0">
      <root>
        <mxCell id="0" />
        <mxCell id="1" parent="0" />
        <mxCell id="WMO95-ApRFWZus1bul0B-4" style="edgeStyle=orthogonalEdgeStyle;rounded=0;orthogonalLoop=1;jettySize=auto;html=1;strokeWidth=5;strokeColor=default;align=center;verticalAlign=middle;fontFamily=Helvetica;fontSize=11;fontColor=default;labelBackgroundColor=default;endArrow=blockThin;endFill=1;" parent="1" target="WMO95-ApRFWZus1bul0B-3" edge="1">
          <mxGeometry relative="1" as="geometry">
            <mxPoint x="405" y="1110" as="sourcePoint" />
          </mxGeometry>
        </mxCell>
        <mxCell id="WMO95-ApRFWZus1bul0B-5" style="edgeStyle=orthogonalEdgeStyle;rounded=0;orthogonalLoop=1;jettySize=auto;html=1;strokeWidth=5;strokeColor=default;align=center;verticalAlign=middle;fontFamily=Helvetica;fontSize=11;fontColor=default;labelBackgroundColor=default;endArrow=blockThin;endFill=1;" parent="1" source="WMO95-ApRFWZus1bul0B-3" edge="1">
          <mxGeometry relative="1" as="geometry">
            <mxPoint x="405" y="70" as="targetPoint" />
          </mxGeometry>
        </mxCell>
        <mxCell id="WMO95-ApRFWZus1bul0B-6" style="edgeStyle=orthogonalEdgeStyle;rounded=0;orthogonalLoop=1;jettySize=auto;html=1;strokeWidth=5;endArrow=blockThin;endFill=1;exitX=-0.008;exitY=0.676;exitDx=0;exitDy=0;exitPerimeter=0;" parent="1" edge="1" source="tfDwebj8LEte1S4MuZG7-1">
          <mxGeometry relative="1" as="geometry">
            <mxPoint x="495" y="360" as="targetPoint" />
            <mxPoint x="720" y="360" as="sourcePoint" />
          </mxGeometry>
        </mxCell>
        <mxCell id="WMO95-ApRFWZus1bul0B-7" style="edgeStyle=orthogonalEdgeStyle;rounded=0;orthogonalLoop=1;jettySize=auto;html=1;strokeWidth=5;strokeColor=default;align=center;verticalAlign=middle;fontFamily=Helvetica;fontSize=11;fontColor=default;labelBackgroundColor=default;endArrow=blockThin;endFill=1;" parent="1" edge="1">
          <mxGeometry relative="1" as="geometry">
            <mxPoint x="160" y="760" as="targetPoint" />
            <mxPoint x="315" y="760" as="sourcePoint" />
          </mxGeometry>
        </mxCell>
        <mxCell id="WMO95-ApRFWZus1bul0B-3" value="" style="shape=mxgraph.pid.heat_exchangers.fixed_straight_tubes_heat_exchanger;html=1;pointerEvents=1;align=center;verticalLabelPosition=bottom;verticalAlign=top;dashed=0;rotation=90;strokeWidth=5;" parent="1" vertex="1">
          <mxGeometry x="110" y="470" width="590" height="180" as="geometry" />
        </mxCell>
        <mxCell id="tfDwebj8LEte1S4MuZG7-3" value="" style="edgeStyle=orthogonalEdgeStyle;rounded=0;orthogonalLoop=1;jettySize=auto;html=1;strokeWidth=5;endArrow=none;endFill=0;entryX=0.994;entryY=0.674;entryDx=0;entryDy=0;entryPerimeter=0;" edge="1" parent="1" target="tfDwebj8LEte1S4MuZG7-1">
          <mxGeometry relative="1" as="geometry">
            <mxPoint x="495" y="360" as="targetPoint" />
            <mxPoint x="720" y="360" as="sourcePoint" />
          </mxGeometry>
        </mxCell>
        <mxCell id="tfDwebj8LEte1S4MuZG7-1" value="" style="verticalLabelPosition=bottom;align=center;html=1;verticalAlign=top;pointerEvents=1;dashed=0;shape=mxgraph.pid2valves.valve;valveType=gate;actuator=diaph;strokeWidth=2;" vertex="1" parent="1">
          <mxGeometry x="590" y="320" width="60" height="60" as="geometry" />
        </mxCell>
      </root>
    </mxGraphModel>
  </diagram>
</mxfile>
